<?xml version="1.0" encoding="UTF-8" standalone="no"?>
<!-- Created with Inkscape (http://www.inkscape.org/) -->

<svg
   xmlns:dc="http://purl.org/dc/elements/1.1/"
   xmlns:cc="http://creativecommons.org/ns#"
   xmlns:rdf="http://www.w3.org/1999/02/22-rdf-syntax-ns#"
   xmlns:svg="http://www.w3.org/2000/svg"
   xmlns="http://www.w3.org/2000/svg"
   xmlns:sodipodi="http://sodipodi.sourceforge.net/DTD/sodipodi-0.dtd"
   xmlns:inkscape="http://www.inkscape.org/namespaces/inkscape"
   width="48px"
   height="48px"
   id="svg2985"
   version="1.1"
   inkscape:version="0.48.5 r10040"
   sodipodi:docname="barnkladd.svg">
  <defs
     id="defs2987" />
  <sodipodi:namedview
     id="base"
     pagecolor="#ffffff"
     bordercolor="#666666"
     borderopacity="1.0"
     inkscape:pageopacity="0.0"
     inkscape:pageshadow="2"
     inkscape:zoom="7"
     inkscape:cx="-1.2857143"
     inkscape:cy="23.714286"
     inkscape:current-layer="layer1"
     showgrid="true"
     inkscape:grid-bbox="true"
     inkscape:document-units="px"
     inkscape:window-width="1280"
     inkscape:window-height="736"
     inkscape:window-x="0"
     inkscape:window-y="26"
     inkscape:window-maximized="1" />
  <metadata
     id="metadata2990">
    <rdf:RDF>
      <cc:Work
         rdf:about="">
        <dc:format>image/svg+xml</dc:format>
        <dc:type
           rdf:resource="http://purl.org/dc/dcmitype/StillImage" />
        <dc:title />
      </cc:Work>
    </rdf:RDF>
  </metadata>
  <g
     id="layer1"
     inkscape:label="Layer 1"
     inkscape:groupmode="layer">
    <path
       transform="matrix(0.76610023,0.64272112,-0.64272112,0.76610023,0,0)"
       style="color:#000000;fill:#00ffff;fill-opacity:1;fill-rule:nonzero;stroke:#00ffff;stroke-width:0.54756397;stroke-linecap:butt;stroke-linejoin:miter;stroke-miterlimit:4;stroke-opacity:1;stroke-dashoffset:0;marker:none;visibility:visible;display:inline;overflow:visible;enable-background:accumulate"
       d="m 30.505203,-15.978449 2.912599,0 0.0705,37.194959 -1.490729,6.1825 -1.42187,-6.1825 z"
       id="rect3009"
       inkscape:connector-curvature="0"
       sodipodi:nodetypes="cccccc" />
    <path
       style="color:#000000;fill:#ff0000;fill-opacity:1;fill-rule:nonzero;stroke:#ff0000;stroke-width:1;stroke-linecap:butt;stroke-linejoin:miter;stroke-miterlimit:4;stroke-opacity:1;stroke-dasharray:none;stroke-dashoffset:0;marker:none;visibility:visible;display:inline;overflow:visible;enable-background:accumulate"
       id="path3782"
       d="m 7.4999374,41.931143 c -0.233284,0.200562 -0.3999325,0.457073 -0.5379828,0.728945 -0.1291971,0.278483 -0.1671261,0.557946 -0.1023106,0.855683 0.063937,0.363446 0.2896263,0.642338 0.5280217,0.910758 0.2511875,0.28066 0.5487719,0.485886 0.9077947,0.595367 0.3364063,0.07084 0.6780473,0.07814 1.0166861,0.136048 0.3470289,0.05859 0.6992295,0.07069 1.0502795,0.08119 0.230122,-0.0098 0.468058,0.03628 0.694544,-0.02158 0.10318,-0.02636 0.200945,-0.07061 0.301645,-0.105254 -0.244051,0.214384 0.772794,-0.412711 0.49046,-0.252571 -2.775019,1.573998 -1.8894813,1.193624 -1.333015,0.694577 0.287906,-0.27311 0.4867,-0.596506 0.603617,-0.973022 0.07666,-0.316443 0.136551,-0.636327 0.203763,-0.954709 0.09026,-0.32066 0.128922,-0.65096 0.156124,-0.981849 0.01989,-0.305291 0.0074,-0.611115 0.03394,-0.915947 0.199895,-1.084353 1.756234,-1.11103 2.640399,-1.22076 0.590316,-0.08737 1.17925,0.04706 1.745089,0.210025 0.578509,0.197041 1.133155,0.456787 1.695402,0.695002 0.589783,0.248679 1.165669,0.527435 1.779492,0.712866 0.339599,0.09988 0.691882,0.115346 1.043036,0.122253 0.396531,0.01447 0.790089,0.07821 1.186202,0.109216 0.42548,0.01282 0.846874,0.03767 1.269836,0.0847 0.856447,0.09046 1.71838,0.0974 2.578618,0.106554 0.763613,0.03379 1.519139,-0.02098 2.271095,-0.147742 0.217104,-0.04109 0.455671,-0.07185 0.659929,-0.164407 0.05391,-0.02443 0.202031,-0.123326 0.15045,-0.0943 -1.640814,0.923366 -2.141312,1.320953 -1.510742,0.832361 0.296928,-0.293871 0.463857,-0.684168 0.602537,-1.071405 0.08521,-0.388542 0.234272,-0.745476 0.416296,-1.096849 0.229604,-0.466566 0.448587,-0.939107 0.639518,-1.422891 0.143988,-0.43172 0.263217,-0.870746 0.412665,-1.300681 0.09732,-0.324231 0.241384,-0.630013 0.399215,-0.928377 0.164716,-0.279577 0.416125,-0.47993 0.675276,-0.666553 1.281908,-0.853455 1.966323,-1.206949 3.28518,-1.511926 0.564025,-0.112731 1.127235,-0.21853 1.701433,-0.260376 0.618129,-0.03788 1.238103,-0.02881 1.857165,-0.03574 0.453655,-0.01957 0.829457,0.143259 1.222782,0.339936 0.312015,0.137579 0.570793,0.391062 0.897775,0.489032 0.04529,0.0072 0.09014,0.02506 0.135878,0.02166 0.05492,-0.0041 0.33728,-0.118738 0.349608,-0.123441 0.342252,-0.130568 0.685281,-0.253619 1.02456,-0.392151 0.381086,-0.177671 0.778305,-0.316071 1.161576,-0.488644 0.106979,-0.04817 0.418606,-0.211329 0.317737,-0.151413 -2.16601,1.286611 -1.855735,1.089432 -1.246276,0.687638 0.334589,-0.226568 0.535496,-0.562542 0.730037,-0.90514 0.20978,-0.369341 0.301863,-0.782827 0.400441,-1.191182 0.101137,-0.419177 0.172785,-0.844943 0.252566,-1.268657 0.05924,-0.377227 0.09911,-0.75943 0.08354,-1.141363 -0.07161,-0.448665 -0.12976,-0.904462 -0.267531,-1.338656 -0.185946,-0.581651 -0.54778,-1.083609 -0.897785,-1.576383 -0.249847,-0.376851 -0.516215,-0.744326 -0.74586,-1.134251 -0.168449,-0.272519 -0.298474,-0.564911 -0.439428,-0.851893 -0.19261,-0.365387 -0.30109,-0.762075 -0.420247,-1.15477 -0.115619,-0.360037 -0.285573,-0.701572 -0.48017,-1.024946 -0.159106,-0.254344 -0.386386,-0.425995 -0.672236,-0.508152 -0.238204,-0.08811 -0.64965,0.01282 -0.851376,-0.151714 -0.05449,-0.04445 -0.08641,-0.110964 -0.129615,-0.166446 -0.218185,-0.525403 -0.249587,-1.11355 -0.290283,-1.675702 -0.0056,-0.727734 0.03637,-1.454785 0.05143,-2.182357 -0.0053,-0.392007 0.0074,-0.779396 0.06713,-1.166793 0.08772,-0.397244 0.29017,-0.733773 0.543677,-1.045063 0.2965,-0.334545 0.580798,-0.68014 0.879586,-1.012499 0.334122,-0.355076 0.727541,-0.644646 1.075377,-0.985339 0.238183,-0.252275 0.435748,-0.53848 0.68345,-0.781603 0.218865,-0.199956 0.458334,-0.375322 0.699834,-0.54664 0.195162,-0.143102 0.384487,-0.29204 0.546712,-0.472109 0.180627,-0.222041 0.294821,-0.485353 0.391664,-0.752189 0.13004,-0.48182 0.127389,-0.986768 0.141312,-1.482123 0.01093,-0.514777 -0.0021,-1.0296248 -0.01121,-1.5443223 -0.0058,-0.3118406 -0.0077,-0.6237288 -0.0086,-0.9356147 -0.01717,-0.2716832 0.06098,-0.5336504 0.09857,-0.8000439 0,0 1.880263,-0.9304066 1.880263,-0.9304066 l 0,0 c -0.0251,0.2626749 -0.09417,0.5159051 -0.108188,0.7771388 -4.94e-4,0.3141697 -0.0015,0.6283429 -0.0056,0.9424905 -0.0068,0.5209947 -0.01739,1.0419665 -0.01742,1.5630235 -0.0016,0.5048797 0.0051,1.0148477 -0.07678,1.5144027 -0.07044,0.286202 -0.189122,0.566969 -0.350697,0.813671 -0.13392,0.215957 -0.319586,0.386722 -0.530384,0.526516 -0.226317,0.192675 -0.492749,0.336252 -0.710259,0.540785 -0.284678,0.209717 -0.474404,0.505783 -0.703228,0.771521 -0.341267,0.350825 -0.729271,0.644092 -1.08273,0.981471 -0.310301,0.317215 -0.573472,0.678508 -0.881716,0.998704 -0.254079,0.306917 -0.450871,0.54548 -0.570872,0.937199 -0.06733,0.386039 -0.115862,0.769315 -0.116302,1.162765 -0.04256,0.721734 -0.08912,1.444333 -0.07636,2.167727 0.04451,0.514579 0.08435,1.050608 0.276792,1.534003 0.233464,0.223316 0.63799,0.09419 0.921431,0.226946 0.314432,0.130207 0.570436,0.339686 0.748431,0.633726 0.194011,0.343119 0.364542,0.700776 0.495259,1.072975 0.113871,0.383465 0.206818,0.772373 0.416431,1.119284 0.134382,0.284734 0.268928,0.569636 0.430181,0.840385 0.214912,0.389865 0.452569,0.768193 0.688799,1.145169 0.355857,0.51328 0.745978,1.020073 0.963379,1.611187 0.143092,0.450492 0.187636,0.922491 0.293771,1.382477 0.0325,0.396733 8.94e-4,0.793409 -0.06258,1.186146 -0.07162,0.430423 -0.165379,0.857198 -0.250744,1.284982 -0.111672,0.414314 -0.169399,0.847186 -0.368368,1.233402 -0.192465,0.368434 -0.389757,0.739457 -0.720119,1.005265 -1.149251,0.84037 -2.416529,1.43389 -3.72845,1.950563 -0.404115,0.162448 -0.379749,0.156039 -0.772427,0.30142 -0.151877,0.05623 -0.394611,0.154235 -0.564413,0.173961 -0.135138,0.0157 -0.209499,-0.02062 -0.332155,-0.05907 -0.310924,-0.149131 -0.589442,-0.35826 -0.900257,-0.509338 -0.362698,-0.180936 -0.729063,-0.287359 -1.140082,-0.279717 -0.617212,-0.0029 -1.234975,0.0019 -1.850525,0.05271 -0.564913,0.05973 -1.123754,0.157383 -1.678101,0.28187 -0.293491,0.07641 -0.582279,0.159464 -0.868177,0.2613 -0.704535,0.250953 -1.790083,0.928909 1.162357,-0.750154 -0.267998,0.139883 -0.509359,0.339957 -0.702399,0.572841 -0.193389,0.268119 -0.323596,0.588155 -0.436835,0.896577 -0.156384,0.432495 -0.293795,0.870376 -0.425232,1.31107 -0.176616,0.490588 -0.410819,0.957336 -0.617453,1.435555 -0.16627,0.350263 -0.363813,0.680546 -0.426804,1.071672 -0.133176,0.407846 -0.298465,0.809961 -0.55019,1.160413 -0.738903,0.812621 -1.807235,1.307248 -2.877864,1.452406 -0.744378,0.103899 -1.493887,0.115739 -2.244571,0.08626 -0.881,-0.01478 -1.764021,-0.01782 -2.64298,-0.08075 -0.429399,-0.03463 -0.859429,-0.03711 -1.288912,-0.06985 -0.393578,-0.04064 -0.786469,-0.102686 -1.183229,-0.0957 -0.360048,-0.01413 -0.716755,-0.06258 -1.057381,-0.186585 -0.599031,-0.219714 -1.170412,-0.505078 -1.762617,-0.742042 -0.563632,-0.230615 -1.120971,-0.482509 -1.704728,-0.658967 -0.555903,-0.152816 -1.12056,-0.258549 -1.695619,-0.141264 -0.08622,0.0128 -0.172406,0.02584 -0.258663,0.03839 -0.131612,0.01915 -0.264101,0.03278 -0.394994,0.05634 -0.03974,0.0072 -0.152506,0.04838 -0.118018,0.02737 1.729488,-1.053585 2.441588,-0.915546 1.700194,-1.04379 -0.151916,0.255688 -0.03071,0.602725 -0.08,0.88435 -0.01457,0.340886 -0.05562,0.679889 -0.1342,1.012404 -0.08855,0.316298 -0.129396,0.646993 -0.210244,0.965625 -0.102733,0.407045 -0.271084,0.761028 -0.557994,1.073571 -0.74295,0.772462 -1.752638,1.250749 -2.743671,1.63455 -0.3398075,0.09329 -0.6823643,0.08624 -1.0325258,0.06721 -0.3579994,-0.01298 -0.7160698,-0.0397 -1.0695692,-0.0999 C 7.2541948,46.308555 6.8990496,46.307603 6.5657935,46.191124 6.1902258,46.042084 5.8750946,45.806002 5.6054824,45.503922 5.3470569,45.211674 5.097005,44.901432 5.019906,44.508955 c -0.019479,-0.07357 -0.079509,-0.286721 -0.084583,-0.361806 -0.013954,-0.206501 0.072139,-0.421475 0.1215501,-0.617097 0.1170389,-0.28424 0.2717634,-0.562546 0.4835172,-0.787238 0,0 1.9595467,-0.811671 1.9595467,-0.811671 z"
       inkscape:connector-curvature="0" />
    <path
       sodipodi:type="arc"
       style="color:#000000;fill:#00ff00;fill-opacity:1;fill-rule:nonzero;stroke:#00ff00;stroke-width:1;stroke-linecap:butt;stroke-linejoin:miter;stroke-miterlimit:4;stroke-opacity:1;stroke-dasharray:none;stroke-dashoffset:0;marker:none;visibility:visible;display:inline;overflow:visible;enable-background:accumulate"
       id="path3784"
       sodipodi:cx="20"
       sodipodi:cy="43.42857"
       sodipodi:rx="2.7142856"
       sodipodi:ry="2.8571429"
       d="m 22.714286,43.42857 a 2.7142856,2.8571429 0 1 1 -5.428572,0 2.7142856,2.8571429 0 1 1 5.428572,0 z" />
    <rect
       style="color:#000000;fill:#ff00ff;fill-opacity:1;fill-rule:nonzero;stroke:#ff00ff;stroke-width:1;stroke-linecap:butt;stroke-linejoin:miter;stroke-miterlimit:4;stroke-opacity:1;stroke-dasharray:none;stroke-dashoffset:0;marker:none;visibility:visible;display:inline;overflow:visible;enable-background:accumulate"
       id="rect3786"
       width="7.5714288"
       height="6.7142859"
       x="38.714287"
       y="28.714285" />
  </g>
</svg>
