<?xml version="1.0" encoding="UTF-8" standalone="no"?>
<!-- Created with Inkscape (http://www.inkscape.org/) -->

<svg
   xmlns:osb="http://www.openswatchbook.org/uri/2009/osb"
   xmlns:dc="http://purl.org/dc/elements/1.1/"
   xmlns:cc="http://creativecommons.org/ns#"
   xmlns:rdf="http://www.w3.org/1999/02/22-rdf-syntax-ns#"
   xmlns:svg="http://www.w3.org/2000/svg"
   xmlns="http://www.w3.org/2000/svg"
   xmlns:xlink="http://www.w3.org/1999/xlink"
   xmlns:sodipodi="http://sodipodi.sourceforge.net/DTD/sodipodi-0.dtd"
   xmlns:inkscape="http://www.inkscape.org/namespaces/inkscape"
   width="64px"
   height="64px"
   id="svg2985"
   version="1.1"
   inkscape:version="0.48.4 r9939"
   sodipodi:docname="kritabla.svg">
  <defs
     id="defs2987">
    <linearGradient
       inkscape:collect="always"
       id="linearGradient4904">
      <stop
         style="stop-color:#dedbe3;stop-opacity:1;"
         offset="0"
         id="stop4906" />
      <stop
         style="stop-color:#dedbe3;stop-opacity:0;"
         offset="1"
         id="stop4908" />
    </linearGradient>
    <linearGradient
       inkscape:collect="always"
       id="linearGradient4894">
      <stop
         style="stop-color:#d400aa;stop-opacity:1;"
         offset="0"
         id="stop4896" />
      <stop
         style="stop-color:#d400aa;stop-opacity:0;"
         offset="1"
         id="stop4898" />
    </linearGradient>
    <linearGradient
       inkscape:collect="always"
       id="linearGradient4884">
      <stop
         style="stop-color:#dedbe3;stop-opacity:1;"
         offset="0"
         id="stop4886" />
      <stop
         style="stop-color:#dedbe3;stop-opacity:0;"
         offset="1"
         id="stop4888" />
    </linearGradient>
    <linearGradient
       inkscape:collect="always"
       id="linearGradient4837">
      <stop
         style="stop-color:#dbe3e2;stop-opacity:1;"
         offset="0"
         id="stop4839" />
      <stop
         style="stop-color:#dbe3e2;stop-opacity:0;"
         offset="1"
         id="stop4841" />
    </linearGradient>
    <linearGradient
       inkscape:collect="always"
       id="linearGradient4825">
      <stop
         style="stop-color:#d7f4ee;stop-opacity:1;"
         offset="0"
         id="stop4827" />
      <stop
         style="stop-color:#d7f4ee;stop-opacity:0;"
         offset="1"
         id="stop4829" />
    </linearGradient>
    <linearGradient
       inkscape:collect="always"
       id="linearGradient4782">
      <stop
         style="stop-color:#f4e3d7;stop-opacity:1;"
         offset="0"
         id="stop4784" />
      <stop
         style="stop-color:#f4e3d7;stop-opacity:0;"
         offset="1"
         id="stop4786" />
    </linearGradient>
    <linearGradient
       inkscape:collect="always"
       id="linearGradient4557">
      <stop
         style="stop-color:#ffffff;stop-opacity:1;"
         offset="0"
         id="stop4559" />
      <stop
         style="stop-color:#ffffff;stop-opacity:0;"
         offset="1"
         id="stop4561" />
    </linearGradient>
    <linearGradient
       inkscape:collect="always"
       id="linearGradient5271">
      <stop
         style="stop-color:#ff8b1e;stop-opacity:1;"
         offset="0"
         id="stop5273" />
      <stop
         style="stop-color:#ff8b1e;stop-opacity:0;"
         offset="1"
         id="stop5275" />
    </linearGradient>
    <linearGradient
       id="linearGradient3808"
       osb:paint="gradient">
      <stop
         id="stop3810"
         offset="0"
         style="stop-color:#aa0000;stop-opacity:1;" />
      <stop
         id="stop3812"
         offset="1"
         style="stop-color:#ff0000;stop-opacity:0" />
    </linearGradient>
    <linearGradient
       id="linearGradient3782">
      <stop
         style="stop-color:#950000;stop-opacity:1;"
         offset="0"
         id="stop3784" />
      <stop
         style="stop-color:#aa0000;stop-opacity:0;"
         offset="1"
         id="stop3786" />
    </linearGradient>
    <linearGradient
       inkscape:collect="always"
       xlink:href="#linearGradient3782"
       id="linearGradient5265"
       gradientUnits="userSpaceOnUse"
       x1="31.976591"
       y1="25.101948"
       x2="15.269211"
       y2="11.945"
       gradientTransform="translate(0.68651132,-0.34325544)" />
    <linearGradient
       inkscape:collect="always"
       xlink:href="#linearGradient5271"
       id="linearGradient5277"
       x1="15.2216"
       y1="51.73719"
       x2="-1.656314"
       y2="43.848175"
       gradientUnits="userSpaceOnUse"
       gradientTransform="translate(0.51488358,-0.17162786)" />
    <linearGradient
       inkscape:collect="always"
       xlink:href="#linearGradient4557"
       id="linearGradient4563"
       x1="6.3502307"
       y1="19.720013"
       x2="26.602318"
       y2="35.853031"
       gradientUnits="userSpaceOnUse" />
    <linearGradient
       gradientTransform="translate(0.51488358,-0.17162786)"
       gradientUnits="userSpaceOnUse"
       y2="43.848175"
       x2="-1.656314"
       y1="51.73719"
       x1="15.2216"
       id="linearGradient5277-2"
       xlink:href="#linearGradient5271-0"
       inkscape:collect="always" />
    <linearGradient
       gradientTransform="translate(0.68651132,-0.34325544)"
       y2="6.28128"
       x2="6.1729345"
       y1="25.101948"
       x1="31.976591"
       gradientUnits="userSpaceOnUse"
       id="linearGradient5265-1"
       xlink:href="#linearGradient3782-1"
       inkscape:collect="always" />
    <linearGradient
       id="linearGradient3782-1">
      <stop
         id="stop3784-3"
         offset="0"
         style="stop-color:#0037c1;stop-opacity:1;" />
      <stop
         id="stop3786-0"
         offset="1"
         style="stop-color:#aa0000;stop-opacity:0;" />
    </linearGradient>
    <linearGradient
       osb:paint="gradient"
       id="linearGradient3808-6">
      <stop
         style="stop-color:#aa0000;stop-opacity:1;"
         offset="0"
         id="stop3810-8" />
      <stop
         style="stop-color:#ff0000;stop-opacity:0"
         offset="1"
         id="stop3812-7" />
    </linearGradient>
    <linearGradient
       id="linearGradient5271-0"
       inkscape:collect="always">
      <stop
         id="stop5273-7"
         offset="0"
         style="stop-color:#ff8b1e;stop-opacity:1;" />
      <stop
         id="stop5275-0"
         offset="1"
         style="stop-color:#ff8b1e;stop-opacity:0;" />
    </linearGradient>
    <linearGradient
       inkscape:collect="always"
       xlink:href="#linearGradient4782"
       id="linearGradient4788"
       x1="-7.7232537"
       y1="45.464191"
       x2="5.8353472"
       y2="56.620003"
       gradientUnits="userSpaceOnUse" />
    <linearGradient
       inkscape:collect="always"
       xlink:href="#linearGradient4557"
       id="linearGradient4792"
       gradientUnits="userSpaceOnUse"
       x1="-6.5138469"
       y1="8.7976828"
       x2="27.330473"
       y2="34.882156" />
    <linearGradient
       inkscape:collect="always"
       xlink:href="#linearGradient4825"
       id="linearGradient4831"
       x1="11.499066"
       y1="12.511642"
       x2="33.295803"
       y2="28.129778"
       gradientUnits="userSpaceOnUse" />
    <linearGradient
       inkscape:collect="always"
       xlink:href="#linearGradient4837"
       id="linearGradient4843"
       x1="0.51488358"
       y1="41.345123"
       x2="12.528833"
       y2="51.98605"
       gradientUnits="userSpaceOnUse" />
    <linearGradient
       inkscape:collect="always"
       xlink:href="#linearGradient4884"
       id="linearGradient4890"
       x1="20.252089"
       y1="19.548384"
       x2="33.124176"
       y2="29.159546"
       gradientUnits="userSpaceOnUse" />
    <linearGradient
       inkscape:collect="always"
       xlink:href="#linearGradient4894"
       id="linearGradient4900"
       x1="-3.2609293"
       y1="41.688381"
       x2="-7.3799982"
       y2="38.255821"
       gradientUnits="userSpaceOnUse" />
    <linearGradient
       inkscape:collect="always"
       xlink:href="#linearGradient4904"
       id="linearGradient4910"
       x1="3.2609293"
       y1="47.523724"
       x2="16.133018"
       y2="55.418606"
       gradientUnits="userSpaceOnUse" />
  </defs>
  <sodipodi:namedview
     id="base"
     pagecolor="#ffffff"
     bordercolor="#666666"
     borderopacity="1.0"
     inkscape:pageopacity="0.0"
     inkscape:pageshadow="2"
     inkscape:zoom="5.8265599"
     inkscape:cx="41.546111"
     inkscape:cy="29.933071"
     inkscape:current-layer="layer1"
     showgrid="true"
     inkscape:document-units="px"
     inkscape:grid-bbox="true"
     inkscape:object-paths="false"
     inkscape:window-width="1366"
     inkscape:window-height="718"
     inkscape:window-x="0"
     inkscape:window-y="0"
     inkscape:window-maximized="1" />
  <metadata
     id="metadata2990">
    <rdf:RDF>
      <cc:Work
         rdf:about="">
        <dc:format>image/svg+xml</dc:format>
        <dc:type
           rdf:resource="http://purl.org/dc/dcmitype/StillImage" />
        <dc:title></dc:title>
      </cc:Work>
    </rdf:RDF>
  </metadata>
  <g
     inkscape:groupmode="layer"
     id="layer3"
     inkscape:label="under"
     sodipodi:insensitive="true">
    <path
       style="fill:#f4eed7;stroke:none"
       d="M 1.3986443,63.182763 7.2038362,43.696856 36.283126,1.747863 C 47.153999,0.32633259 52.253945,3.9543635 52.141282,12.143427 L 21.1672,53.636526 z"
       id="path5332"
       inkscape:connector-curvature="0"
       sodipodi:nodetypes="cccccc" />
  </g>
  <g
     id="layer1"
     inkscape:label="Layer 1"
     inkscape:groupmode="layer">
    <path
       id="path2995"
       style="fill:none;stroke:#000000;stroke-width:1px;stroke-linecap:butt;stroke-linejoin:miter;stroke-opacity:1"
       d="m 6.884184,43.726817 c 12.100057,-1.193077 13.735715,5.262828 14.500262,9.804801 M 1.2050146,63.276267 6.7260627,43.952599 36.401697,1.5785549 C 49.219623,0.18396902 51.97458,6.4403841 52.412736,11.93052 l -31.02829,41.601098 z"
       inkscape:connector-curvature="0" />
    <path
       d="m 6.884184,43.726817 c 12.100057,-1.193077 13.735715,5.262828 14.500262,9.804801 M 1.2050146,63.276267 6.7260627,43.952599 36.401697,1.5785549 C 49.219623,0.18396902 51.97458,6.4403841 52.412736,11.93052 l -31.02829,41.601098 z"
       style="fill:none;stroke:#000000;stroke-width:1px;stroke-linecap:butt;stroke-linejoin:miter;stroke-opacity:1"
       id="path3780"
       inkscape:connector-curvature="0" />
    <path
       sodipodi:nodetypes="ccccc"
       inkscape:connector-curvature="0"
       id="path5263"
       d="M 52.572956,11.621855 21.852977,52.961919 C 19.915305,48.637837 18.60361,44.230413 7.5421874,43.510859 L 36.372213,1.6940984 c 7.570535,-2.10231984 16.227048,2.9262253 16.200743,9.9277566 z"
       style="fill:url(#linearGradient5265);fill-opacity:1;stroke:none" />
    <path
       id="path5267"
       style="fill:none;stroke:#000000;stroke-width:1px;stroke-linecap:butt;stroke-linejoin:miter;stroke-opacity:1"
       d="m 6.884184,43.726817 c 12.100057,-1.193077 13.735715,5.262828 14.500262,9.804801 M 1.2050146,63.276267 6.7260627,43.952599 36.401697,1.5785549 C 49.219623,0.18396902 51.97458,6.4403841 52.412736,11.93052 l -31.02829,41.601098 z"
       inkscape:connector-curvature="0" />
    <path
       style="fill:url(#linearGradient5277);fill-opacity:1;stroke:none"
       d="M 1.2050146,63.276267 6.9854822,43.582172 C 14.058006,43.43282 20.654742,43.997149 21.217706,53.612137 z"
       id="path5269"
       inkscape:connector-curvature="0"
       sodipodi:nodetypes="cccc" />
    <path
       style="fill:#ff0000;fill-opacity:1;stroke:#000000;stroke-width:1px;stroke-linecap:butt;stroke-linejoin:miter;stroke-opacity:1"
       d="M 1.2050146,63.276267 2.6791568,58.253854 C 5.101808,57.860698 6.992756,57.90017 6.597057,60.672449 z"
       id="path5279"
       inkscape:connector-curvature="0"
       sodipodi:nodetypes="cccc" />
    <path
       d="m 6.884184,43.726817 c 12.100057,-1.193077 13.735715,5.262828 14.500262,9.804801 M 1.2050146,63.276267 6.7260627,43.952599 36.401697,1.5785549 C 49.219623,0.18396902 51.97458,6.4403841 52.412736,11.93052 l -31.02829,41.601098 z"
       style="fill:none;stroke:#000000;stroke-width:1px;stroke-linecap:butt;stroke-linejoin:miter;stroke-opacity:1"
       id="path5289"
       inkscape:connector-curvature="0" />
    <path
       inkscape:connector-curvature="0"
       id="path4545"
       style="fill:#008000;stroke:#000000;stroke-width:1px;stroke-linecap:butt;stroke-linejoin:miter;stroke-opacity:1"
       d="M 1.2050146,63.276267 C -2.2644999,61.016097 6.7260627,43.952599 6.7260627,43.952599 L 36.401697,1.5785549 C 49.219623,0.18396902 51.97458,6.4403841 52.412736,11.93052 l -31.02829,41.601098 c 0,0 -15.8602499,12.558324 -20.1794314,9.744649 z"
       sodipodi:nodetypes="sccccs" />
    <path
       sodipodi:nodetypes="sccccs"
       d="M 1.2050146,63.276267 C -2.2644999,61.016097 6.7260627,43.952599 6.7260627,43.952599 L 36.401697,1.5785549 C 49.219623,0.18396902 51.97458,6.4403841 52.412736,11.93052 l -31.02829,41.601098 c 0,0 -15.8602499,12.558324 -20.1794314,9.744649 z"
       style="fill:url(#linearGradient4563);stroke:#000000;stroke-width:1px;stroke-linecap:butt;stroke-linejoin:miter;stroke-opacity:1;fill-opacity:1"
       id="path4555"
       inkscape:connector-curvature="0" />
    <path
       style="fill:#003e00;stroke:none;stroke-width:1px;stroke-linecap:butt;stroke-linejoin:miter;stroke-opacity:1;fill-opacity:1"
       d="M 6.7064305,44.021312 C 1.6315711,53.994123 -1.9668233,62.426712 1.5350304,63.452447 9.6512215,64.793401 15.056105,57.322605 21.532259,53.333438 20.999088,45.575693 15.468964,43.092508 6.7064305,44.021312 z"
       id="path4752"
       inkscape:connector-curvature="0"
       sodipodi:nodetypes="cccc" />
    <path
       sodipodi:nodetypes="cccc"
       inkscape:connector-curvature="0"
       id="path4762"
       d="M 6.7064305,44.021312 C 1.6315711,53.994123 -1.9668233,62.426712 1.5350304,63.452447 9.6512215,64.793401 15.056105,57.322605 21.532259,53.333438 20.999088,45.575693 15.468964,43.092508 6.7064305,44.021312 z"
       style="fill:#338000;stroke:none;stroke-width:1px;stroke-linecap:butt;stroke-linejoin:miter;stroke-opacity:1;fill-opacity:1" />
    <path
       style="fill:url(#linearGradient4788);stroke:none;stroke-width:1px;stroke-linecap:butt;stroke-linejoin:miter;stroke-opacity:1;fill-opacity:1"
       d="M 6.7064305,44.021312 C 1.6315711,53.994123 -1.9668233,62.426712 1.5350304,63.452447 9.6512215,64.793401 15.056105,57.322605 21.532259,53.333438 20.999088,45.575693 15.468964,43.092508 6.7064305,44.021312 z"
       id="path4780"
       inkscape:connector-curvature="0"
       sodipodi:nodetypes="cccc" />
    <path
       inkscape:connector-curvature="0"
       id="path4790"
       style="fill:url(#linearGradient4792);stroke:#000000;stroke-width:1px;stroke-linecap:butt;stroke-linejoin:miter;stroke-opacity:1;fill-opacity:1"
       d="M 1.2050146,63.276267 C -2.2644999,61.016097 6.7260627,43.952599 6.7260627,43.952599 L 36.401697,1.5785549 C 49.219623,0.18396902 51.97458,6.4403841 52.412736,11.93052 l -31.02829,41.601098 c 0,0 -15.8602499,12.558324 -20.1794314,9.744649 z"
       sodipodi:nodetypes="sccccs" />
    <path
       sodipodi:nodetypes="sccccs"
       d="M 1.2050146,63.276267 C -2.2644999,61.016097 6.7260627,43.952599 6.7260627,43.952599 L 36.401697,1.5785549 C 49.219623,0.18396902 51.97458,6.4403841 52.412736,11.93052 l -31.02829,41.601098 c 0,0 -15.8602499,12.558324 -20.1794314,9.744649 z"
       style="fill:#0044aa;stroke:#000000;stroke-width:1px;stroke-linecap:butt;stroke-linejoin:miter;stroke-opacity:1;fill-opacity:1"
       id="path4813"
       inkscape:connector-curvature="0" />
    <path
       inkscape:connector-curvature="0"
       id="path4823"
       style="fill:url(#linearGradient4831);stroke:#000000;stroke-width:1px;stroke-linecap:butt;stroke-linejoin:miter;stroke-opacity:1;fill-opacity:1"
       d="M 1.2050146,63.276267 C -2.2644999,61.016097 6.7260627,43.952599 6.7260627,43.952599 L 36.401697,1.5785549 C 49.219623,0.18396902 51.97458,6.4403841 52.412736,11.93052 l -31.02829,41.601098 c 0,0 -15.8602499,12.558324 -20.1794314,9.744649 z"
       sodipodi:nodetypes="sccccs" />
    <path
       style="fill:#002255;stroke:none"
       d="M 6.3502308,44.262796 C 16.589086,43.444984 19.669255,47.477441 21.281854,53.015817 14.759996,60.104085 8.2381371,61.940486 1.7162786,63.656744 -2.1454207,62.104151 4.0576066,52.643903 6.3502308,44.262796 z"
       id="path4833"
       inkscape:connector-curvature="0"
       sodipodi:nodetypes="cccc" />
    <path
       sodipodi:nodetypes="cccc"
       inkscape:connector-curvature="0"
       id="path4835"
       d="M 6.3502308,44.262796 C 16.589086,43.444984 19.669255,47.477441 21.281854,53.015817 14.759996,60.104085 8.2381371,61.940486 1.7162786,63.656744 -2.1454207,62.104151 4.0576066,52.643903 6.3502308,44.262796 z"
       style="fill:url(#linearGradient4843);stroke:none;fill-opacity:1" />
    <path
       sodipodi:nodetypes="sccccs"
       d="M 1.2050146,63.276267 C -2.2644999,61.016097 6.7260627,43.952599 6.7260627,43.952599 L 36.401697,1.5785549 C 49.219623,0.18396902 51.97458,6.4403841 52.412736,11.93052 l -31.02829,41.601098 c 0,0 -15.8602499,12.558324 -20.1794314,9.744649 z"
       style="fill:#ff3170;stroke:#000000;stroke-width:1px;stroke-linecap:butt;stroke-linejoin:miter;stroke-opacity:1;fill-opacity:1"
       id="path4845"
       inkscape:connector-curvature="0" />
    <path
       inkscape:connector-curvature="0"
       id="path4882"
       style="fill:url(#linearGradient4890);stroke:#000000;stroke-width:1px;stroke-linecap:butt;stroke-linejoin:miter;stroke-opacity:1;fill-opacity:1"
       d="M 1.2050146,63.276267 C -2.2644999,61.016097 6.7260627,43.952599 6.7260627,43.952599 L 36.401697,1.5785549 C 49.219623,0.18396902 51.97458,6.4403841 52.412736,11.93052 l -31.02829,41.601098 c 0,0 -15.8602499,12.558324 -20.1794314,9.744649 z"
       sodipodi:nodetypes="sccccs" />
    <path
       style="fill:url(#linearGradient4900);stroke:none;fill-opacity:1"
       d="M 6.5218586,44.091168 C 13.525524,44.83897 21.391007,43.32933 21.453482,53.187445 16.884603,57.208119 10.832611,62.589656 1.8879064,63.656744 -2.5115412,61.284123 4.8351524,50.926968 6.5218586,44.091168 z"
       id="path4892"
       inkscape:connector-curvature="0"
       sodipodi:nodetypes="cccc" />
    <path
       sodipodi:nodetypes="cccc"
       inkscape:connector-curvature="0"
       id="path4902"
       d="M 6.5218586,44.091168 C 13.525524,44.83897 21.391007,43.32933 21.453482,53.187445 16.884603,57.208119 10.832611,62.589656 1.8879064,63.656744 -2.5115412,61.284123 4.8351524,50.926968 6.5218586,44.091168 z"
       style="fill:url(#linearGradient4910);stroke:none;fill-opacity:1" />
    <path
       sodipodi:nodetypes="sccccs"
       d="M 1.2050146,63.276267 C -2.2644999,61.016097 6.7260627,43.952599 6.7260627,43.952599 L 36.401697,1.5785549 C 49.219623,0.18396902 51.97458,6.4403841 52.412736,11.93052 l -31.02829,41.601098 c 0,0 -15.8602499,12.558324 -20.1794314,9.744649 z"
       style="fill:none;stroke:#000000;stroke-width:1px;stroke-linecap:butt;stroke-linejoin:miter;stroke-opacity:1;fill-opacity:1"
       id="path4912"
       inkscape:connector-curvature="0" />
  </g>
</svg>
